<?xml version="1.0" encoding="UTF-8"?>
<!DOCTYPE svg PUBLIC "-//W3C//DTD SVG 1.1//EN" "http://www.w3.org/Graphics/SVG/1.1/DTD/svg11.dtd">
<!-- Creator: CorelDRAW -->
<svg xmlns="http://www.w3.org/2000/svg" xml:space="preserve" width="4.69744in" height="1.08259in" version="1.1" style="shape-rendering:geometricPrecision; text-rendering:geometricPrecision; image-rendering:optimizeQuality; fill-rule:evenodd; clip-rule:evenodd"
viewBox="0 0 4689.49 1080.76"
 xmlns:xlink="http://www.w3.org/1999/xlink"
 xmlns:xodm="http://www.corel.com/coreldraw/odm/2003">
 <defs>
  <style type="text/css">
   <![CDATA[
    .fil0 {fill:red}
    .fil1 {fill:black}
    .fil3 {fill:#666666;fill-rule:nonzero}
    .fil2 {fill:black;fill-rule:nonzero}
   ]]>
  </style>
 </defs>
 <g id="Layer_x0020_1">
  <metadata id="CorelCorpID_0Corel-Layer"/>
  <path class="fil0" d="M76.54 417.94l4.71 58.51c9.94,47.77 25.97,60.99 37.41,82.38 11.62,21.72 26.47,29.14 43.58,46.28 55.11,55.22 186.12,72.93 259.3,38.03l94.23 -52.19c6.65,-4.46 18.7,-19.89 23.16,-26.76 7.6,-11.7 11.85,-18.02 20.89,-29.02 38.99,-47.41 32.92,-54.75 52.7,-93.72 16.49,-32.5 11.39,-43.46 17.53,-82.45 7.5,-47.58 -27.48,-116.22 -50.5,-144.58 -46.11,-56.79 -93.15,-79.24 -165.42,-67.87 -22.39,3.53 -40.55,4.25 -57.23,15.98 -6.65,4.68 -9.34,5.94 -16.04,10.59 -39.45,27.39 -70,76 -64.87,124.98 4.68,44.61 30.41,65.17 71.21,78.77 26.62,8.87 65.98,0.2 88.72,11.11 -5.3,7.23 -14.9,13.99 -25.32,17.94 -31.64,12 -59.21,28.64 -111.11,28.64 -26.56,0 -83.19,-22.37 -83.19,-76.54 0,-62.78 20.19,-102.19 55.59,-144.07 13.12,-15.52 3.88,-10.1 28.4,-34.83 6.38,-6.44 8.74,-9.54 15.96,-13.99l18.46 -11.48c33.91,-24.47 42.26,-31.54 77.77,-52.01 5.8,-3.34 15.35,-7.94 21.43,-11.85 15.49,-9.95 4.23,-5.09 12,-21.28 -27.54,0 -126.94,23.41 -147.42,32.28 -12.43,5.38 -16.92,9.13 -27.92,15.34 -5.44,3.07 -9.97,5.54 -15.03,8.26 -6.3,3.38 -9.92,4.49 -15.75,7.55 -48.51,25.48 -79.58,73.36 -109.55,113.4 -27.16,36.29 -53.7,121.95 -53.7,172.58z"/>
  <path class="fil1" d="M9.98 35.26c-3.86,8.05 -6.66,14.56 -6.66,26.62l0 299.49c0,13.54 5.25,17.9 13.31,23.29 26.01,-17.42 26.72,-64.8 48.73,-107.67l19.57 -37c3.12,-5.66 4.76,-7.02 7.98,-11.98 68.93,-106.36 91.15,-113.08 186.39,-166.34 6.54,-3.66 16.29,-11.59 23.51,-16.42 -16.97,-25.34 -49.25,-15.41 -77.04,-13.78 -13.46,0.79 -13.39,-2.77 -29.47,-3.1 -28.89,-0.57 -14.26,7.61 -60.79,1.15 -16.71,-2.32 -111.88,2.56 -125.54,5.75z"/>
  <path class="fil0" d="M442.58 684.16c27.62,13.25 185.53,6.65 226.28,6.65 26.51,0 19.98,-42.84 19.97,-59.9 -0.02,-26.5 -0.57,-53.62 -0.09,-80.04l0.18 -113.05c0.19,-22.5 1.19,-21.52 -6.74,-36.51 -19.46,1.62 -16.47,6.1 -29.95,33.28 -10.2,20.57 -60.77,107.64 -75.72,120.61l-32.46 30.77c-5.65,5.55 -2.79,1.72 -8.1,8.54l-50.67 49.16c-5.03,2.83 -5.05,2.41 -10.77,5.86 -14.69,8.85 -27.3,17.31 -31.92,34.63z"/>
  <path class="fil0" d="M685.5 224.94l4.34 -106.98c1.46,-99.8 0.81,-86.02 -90.86,-86.02 -38.29,0 -41.17,13.96 -46.8,46.63 -2.42,14 -4.34,24.78 6.14,33.92 26.63,23.22 69.1,17.56 102.8,86.92 8.77,18.05 1.88,25.03 24.38,25.54z"/>
  <path class="fil0" d="M-0 640.9c0,59.19 41.33,46.59 109.81,46.59 11.47,0 12.88,-2.46 23.29,-3.33 0,-17.6 0.02,-4.96 3.33,-9.98 -3.77,-14.09 -15.67,-21.55 -27.64,-28.93 -9.74,-6 -27.29,-17.85 -34.88,-25.02 -26.24,-24.82 -25.89,-42.58 -57.28,-59.19 -9.04,13.49 -12.04,10.2 -13.3,33.29 -0.98,18.07 -3.34,27.38 -3.34,46.57z"/>
  <path class="fil2" d="M1039.45 619.68l12.11 75.49c-24.89,5.02 -47.25,7.61 -66.76,7.61 -32.12,0 -57,-4.86 -74.83,-14.74 -17.66,-9.88 -30.1,-22.68 -37.33,-38.72 -7.23,-16.04 -10.76,-49.74 -10.76,-101.09l0 -290.64 -65.58 0 0 -66.1 65.58 0 0 -124.75 88.79 -51.36 0 176.1 88.79 0 0 66.1 -88.79 0 0 295.5c0,24.46 1.51,40.18 4.7,47.14 3.03,6.97 8.07,12.47 15.14,16.69 7.06,4.05 17.15,6.15 30.27,6.15 9.76,0 22.7,-1.13 38.68,-3.4z"/>
  <path id="_1" class="fil2" d="M1126.05 695.98l0 -504.49 79.71 0 0 77.28c20.34,-35.81 39.18,-59.46 56.5,-70.8 17.32,-11.5 36.32,-17.18 57.01,-17.18 29.93,0 60.37,9.08 91.31,27.06l-31.61 78.9c-21.53,-11.67 -43.05,-17.5 -64.57,-17.5 -19.34,0 -36.66,5.67 -51.96,16.85 -15.3,11.18 -26.23,26.73 -32.79,46.66 -9.92,30.3 -14.8,63.51 -14.8,99.63l0 263.58 -88.79 0z"/>
  <path id="_2" class="fil2" d="M1805.07 695.98l0 -75.01c-40.69,57.19 -95.85,85.7 -165.64,85.7 -30.77,0 -59.53,-5.67 -86.26,-17.01 -26.74,-11.5 -46.58,-25.76 -59.53,-42.93 -12.95,-17.33 -22.03,-38.4 -27.25,-63.35 -3.53,-16.85 -5.38,-43.42 -5.38,-79.71l0 -312.19 88.79 0 0 279.14c0,44.55 1.85,74.69 5.38,90.08 5.55,22.52 17.32,40.01 35.48,52.81 17.99,12.8 40.19,19.28 66.76,19.28 26.57,0 51.46,-6.48 74.66,-19.6 23.21,-13.12 39.68,-31.1 49.44,-53.63 9.59,-22.52 14.46,-55.41 14.46,-98.34l0 -269.74 88.79 0 0 504.49 -79.71 0z"/>
  <path id="_3" class="fil2" d="M2381.35 532.68l91.81 11.66c-14.29,51.36 -41.03,91.37 -80.04,119.73 -39.01,28.35 -88.79,42.6 -149.49,42.6 -76.35,0 -136.88,-22.68 -181.62,-68.04 -44.73,-45.2 -67.09,-108.87 -67.09,-190.68 0,-84.57 22.53,-150.34 67.77,-197 45.23,-46.82 103.92,-70.15 176.06,-70.15 69.79,0 126.79,22.84 171.02,68.69 44.22,45.85 66.42,110.32 66.42,193.44 0,5.02 -0.17,12.64 -0.5,22.68l-389.96 0c3.36,55.24 19.51,97.69 48.77,127.01 29.09,29.32 65.58,44.07 109.14,44.07 32.45,0 60.2,-8.27 83.07,-24.79 23.04,-16.52 41.2,-42.93 54.65,-79.22zm-290.58 -137.06l291.59 0c-3.87,-42.45 -15.14,-74.2 -33.47,-95.42 -28.08,-32.89 -64.74,-49.41 -109.64,-49.41 -40.69,0 -74.83,13.12 -102.58,39.37 -27.58,26.24 -42.88,61.4 -45.91,105.47z"/>
  <path id="_4" class="fil2" d="M2667.05 695.98l-82.73 0 0 -695.98 88.79 0 0 248.36c37.5,-45.04 85.26,-67.56 143.44,-67.56 32.12,0 62.72,6.16 91.48,18.63 28.75,12.47 52.29,30.13 70.96,52.65 18.5,22.68 33.13,49.9 43.55,81.81 10.6,31.75 15.81,65.94 15.81,102.23 0,86.19 -22.2,152.93 -66.43,199.92 -44.39,47.14 -97.53,70.63 -159.58,70.63 -61.71,0 -110.14,-24.78 -145.29,-74.2l0 63.51zm-1.01 -255.97c0,60.27 8.58,103.85 25.56,130.74 27.91,43.91 65.58,65.94 113.17,65.94 38.84,0 72.31,-16.2 100.39,-48.6 28.25,-32.4 42.37,-80.68 42.37,-144.84 0,-65.77 -13.45,-114.22 -40.53,-145.48 -27.07,-31.27 -59.86,-46.98 -98.2,-46.98 -38.84,0 -72.31,16.2 -100.39,48.6 -28.25,32.4 -42.38,79.22 -42.38,140.62z"/>
  <path id="_5" class="fil2" d="M3707.61 695.98l0 -504.49 79.71 0 0 71.61c38.34,-54.92 93.83,-82.3 166.31,-82.3 31.62,0 60.54,5.51 86.94,16.37 26.4,10.85 46.24,25.27 59.36,42.93 13.12,17.66 22.37,38.72 27.58,63.02 3.2,15.88 4.88,43.58 4.88,83.11l0 309.76 -88.79 0 0 -306.52c0,-34.83 -3.36,-60.91 -10.26,-78.08 -6.89,-17.18 -19.17,-30.94 -36.65,-41.32 -17.49,-10.2 -38.17,-15.39 -61.71,-15.39 -37.67,0 -70.13,11.5 -97.53,34.67 -27.41,23 -41.03,66.91 -41.03,131.39l0 275.25 -88.79 0z"/>
  <path id="_6" class="fil2" d="M4606.75 695.98l0 -63.99c-33.13,49.74 -81.89,74.68 -146.3,74.68 -41.7,0 -80.04,-11.01 -114.85,-33.21 -34.98,-22.03 -62.05,-52.97 -81.39,-92.5 -19.17,-39.69 -28.76,-85.22 -28.76,-136.73 0,-50.22 8.75,-95.75 26.07,-136.74 17.49,-40.82 43.55,-72.26 78.36,-93.96 34.64,-21.87 73.65,-32.73 116.53,-32.73 31.61,0 59.69,6.48 84.25,19.28 24.55,12.8 44.56,29.65 60.04,50.22l0 -250.3 88.79 0 0 695.98 -82.73 0zm-280.49 -251.6c0,64.48 14.13,112.6 42.55,144.51 28.25,31.91 61.71,47.79 100.22,47.79 38.84,0 71.8,-15.23 99.04,-45.69 27.07,-30.46 40.69,-76.96 40.69,-139.49 0,-68.69 -13.79,-119.24 -41.54,-151.48 -27.58,-32.24 -61.71,-48.28 -102.24,-48.28 -39.52,0 -72.48,15.39 -99.04,46.33 -26.4,30.94 -39.68,79.71 -39.68,146.3z"/>
  <path id="_7" class="fil3" d="M3113.17 443.74c0,-93.15 26.91,-162.17 80.89,-207.05 44.9,-37.26 99.89,-55.89 164.63,-55.89 71.8,0 130.66,22.68 176.4,68.05 45.57,45.2 68.44,107.9 68.44,187.76 0,64.8 -10.09,115.67 -30.26,152.77 -20.18,37.1 -49.61,65.94 -88.29,86.51 -38.51,20.58 -80.71,30.78 -126.29,30.78 -73.32,0 -132.51,-22.52 -177.74,-67.72 -45.23,-45.2 -67.77,-110.33 -67.77,-195.22zm90.81 0.16c0,64.48 14.63,112.76 43.89,144.67 29.43,32.08 66.26,48.12 110.82,48.12 44.06,0 80.72,-16.04 110.14,-48.28 29.26,-32.24 43.89,-81.33 43.89,-147.27 0,-62.21 -14.79,-109.35 -44.22,-141.27 -29.43,-32.08 -66.09,-48.12 -109.81,-48.12 -44.56,0 -81.39,15.87 -110.82,47.79 -29.26,31.92 -43.89,80.03 -43.89,144.35z"/>
  <polygon class="fil2" points="-0,1076.7 -0,852.92 44.2,852.92 44.2,1076.7 "/>
  <polygon id="_1_0" class="fil2" points="86.23,1076.7 86.23,852.92 129.01,852.92 218.84,1002.89 218.84,852.92 259.69,852.92 259.69,1076.7 215.54,1076.7 127.08,929.6 127.08,1076.7 "/>
  <path id="_2_1" class="fil2" d="M294.8 1004.19l42.99 -4.37c2.59,14.74 7.77,25.52 15.65,32.45 7.88,6.93 18.5,10.37 31.86,10.37 14.13,0 24.8,-3.07 31.96,-9.22 7.17,-6.15 10.77,-13.34 10.77,-21.57 0,-5.31 -1.52,-9.79 -4.52,-13.54 -3,-3.7 -8.28,-6.93 -15.8,-9.64 -5.13,-1.87 -16.81,-5.1 -35.11,-9.79 -23.53,-6.04 -40.04,-13.44 -49.54,-22.24 -13.36,-12.35 -20.02,-27.4 -20.02,-45.16 0,-11.41 3.15,-22.14 9.4,-32.08 6.3,-9.95 15.34,-17.5 27.18,-22.71 11.84,-5.21 26.07,-7.81 42.84,-7.81 27.28,0 47.86,6.2 61.63,18.65 13.82,12.45 21.04,29.01 21.75,49.8l-44.2 1.56c-1.88,-11.56 -5.9,-19.84 -12.04,-24.9 -6.15,-5.05 -15.4,-7.6 -27.69,-7.6 -12.7,0 -22.66,2.71 -29.83,8.12 -4.62,3.49 -6.96,8.12 -6.96,13.96 0,5.31 2.18,9.85 6.55,13.6 5.54,4.84 19,9.85 40.39,15.05 21.39,5.16 37.2,10.57 47.41,16.09 10.27,5.57 18.29,13.13 24.08,22.76 5.79,9.64 8.69,21.51 8.69,35.63 0,12.81 -3.46,24.84 -10.42,36.05 -6.96,11.2 -16.77,19.53 -29.47,24.95 -12.7,5.47 -28.55,8.18 -47.51,8.18 -27.59,0 -48.77,-6.51 -63.56,-19.58 -14.79,-13.03 -23.57,-32.04 -26.47,-56.99z"/>
  <path id="_3_2" class="fil2" d="M509.73 852.92l44.2 0 0 121.26c0,19.27 0.56,31.72 1.63,37.4 1.88,9.17 6.3,16.56 13.31,22.08 7.06,5.57 16.66,8.34 28.86,8.34 12.35,0 21.7,-2.61 28,-7.87 6.3,-5.26 10.06,-11.67 11.33,-19.33 1.27,-7.66 1.93,-20.31 1.93,-38.02l0 -123.87 44.21 0 0 117.67c0,26.88 -1.17,45.89 -3.56,56.98 -2.39,11.1 -6.76,20.47 -13.16,28.13 -6.35,7.66 -14.89,13.7 -25.56,18.23 -10.72,4.53 -24.64,6.82 -41.87,6.82 -20.78,0 -36.53,-2.45 -47.25,-7.4 -10.72,-4.95 -19.2,-11.35 -25.45,-19.27 -6.25,-7.92 -10.32,-16.15 -12.3,-24.84 -2.9,-12.82 -4.32,-31.78 -4.32,-56.83l0 -119.49z"/>
  <path id="_4_3" class="fil2" d="M729.89 1076.7l0 -223.77 92.83 0c23.32,0 40.29,2.03 50.86,6.04 10.62,4.01 19.05,11.15 25.41,21.41 6.35,10.32 9.55,22.03 9.55,35.27 0,16.82 -4.77,30.68 -14.37,41.62 -9.61,10.94 -23.93,17.81 -43.04,20.68 9.5,5.68 17.33,11.93 23.48,18.75 6.2,6.83 14.53,18.96 25,36.36l26.62 43.65 -52.69 0 -31.6 -48.86c-11.33,-17.35 -19.11,-28.29 -23.32,-32.82 -4.17,-4.48 -8.59,-7.61 -13.26,-9.27 -4.72,-1.67 -12.14,-2.5 -22.31,-2.5l-8.94 0 0 93.45 -44.2 0zm44.2 -129.08l32.62 0c21.14,0 34.3,-0.94 39.58,-2.76 5.24,-1.82 9.4,-5 12.35,-9.48 3,-4.48 4.47,-10.1 4.47,-16.83 0,-7.55 -1.98,-13.6 -5.89,-18.28 -3.91,-4.63 -9.45,-7.55 -16.57,-8.75 -3.61,-0.52 -14.33,-0.78 -32.16,-0.78l-34.4 0 0 56.88z"/>
  <path id="_5_4" class="fil2" d="M1146.68 1076.7l-47.61 0 -18.85 -50.94 -87.54 0 -18.14 50.94 -46.75 0 84.75 -223.77 46.7 0 87.44 223.77zm-80.78 -88.76l-30.33 -82.82 -29.47 82.82 59.8 0z"/>
  <polygon id="_6_5" class="fil2" points="1170.2,1076.7 1170.2,852.92 1212.99,852.92 1302.81,1002.89 1302.81,852.92 1343.67,852.92 1343.67,1076.7 1299.52,1076.7 1211.05,929.6 1211.05,1076.7 "/>
  <path id="_7_6" class="fil2" d="M1529.99 994.19l42.68 13.44c-6.56,24.64 -17.48,42.92 -32.72,54.9 -15.25,11.93 -34.55,17.92 -57.98,17.92 -29.01,0 -52.84,-10.16 -71.54,-30.47 -18.65,-20.31 -28,-48.08 -28,-83.34 0,-37.24 9.4,-66.2 28.15,-86.83 18.75,-20.63 43.44,-30.94 74.03,-30.94 26.73,0 48.42,8.13 65.09,24.33 9.96,9.58 17.38,23.33 22.36,41.3l-43.6 10.63c-2.59,-11.56 -7.97,-20.73 -16.15,-27.45 -8.23,-6.72 -18.19,-10.05 -29.88,-10.05 -16.2,0 -29.37,5.93 -39.43,17.86 -10.11,11.88 -15.14,31.15 -15.14,57.82 0,28.23 4.98,48.39 14.88,60.37 9.96,12.03 22.87,18.02 38.77,18.02 11.74,0 21.84,-3.8 30.28,-11.46 8.43,-7.66 14.53,-19.64 18.19,-36.05z"/>
  <polygon id="_8" class="fil2" points="1610.52,1076.7 1610.52,852.92 1772.09,852.92 1772.09,890.74 1654.72,890.74 1654.72,940.43 1763.86,940.43 1763.86,978.25 1654.72,978.25 1654.72,1038.88 1776.36,1038.88 1776.36,1076.7 "/>
  <path id="_9" class="fil2" d="M1898.56 852.92l87.29 0c17.33,0 30.19,0.73 38.67,2.19 8.54,1.51 16.11,4.58 22.82,9.22 6.71,4.68 12.3,10.88 16.77,18.65 4.47,7.76 6.71,16.51 6.71,26.15 0,10.42 -2.74,20.06 -8.23,28.75 -5.49,8.75 -12.95,15.26 -22.36,19.64 13.26,4.01 23.42,10.78 30.59,20.37 7.11,9.59 10.67,20.83 10.67,33.8 0,10.21 -2.29,20.11 -6.91,29.74 -4.62,9.64 -10.92,17.34 -18.95,23.13 -7.98,5.73 -17.83,9.27 -29.57,10.63 -7.32,0.78 -25.05,1.3 -53.15,1.51l-74.33 0 0 -223.77zm44.2 37.19l0 51.57 28.86 0c17.12,0 27.79,-0.26 31.96,-0.78 7.51,-0.88 13.46,-3.54 17.78,-7.97 4.32,-4.43 6.45,-10.21 6.45,-17.4 0,-6.93 -1.88,-12.5 -5.59,-16.83 -3.71,-4.32 -9.25,-6.93 -16.57,-7.81 -4.37,-0.52 -16.92,-0.78 -37.6,-0.78l-25.3 0zm0 88.76l0 60 40.85 0c15.85,0 25.97,-0.47 30.24,-1.35 6.56,-1.25 11.89,-4.22 16,-8.96 4.12,-4.79 6.2,-11.1 6.2,-19.06 0,-6.77 -1.57,-12.45 -4.78,-17.14 -3.15,-4.68 -7.77,-8.12 -13.77,-10.26 -5.99,-2.14 -19.05,-3.23 -39.12,-3.23l-35.62 0z"/>
  <path id="_10" class="fil2" d="M2118.72 1076.7l0 -223.77 92.83 0c23.32,0 40.29,2.03 50.86,6.04 10.62,4.01 19.05,11.15 25.41,21.41 6.35,10.32 9.55,22.03 9.55,35.27 0,16.82 -4.77,30.68 -14.38,41.62 -9.6,10.94 -23.93,17.81 -43.04,20.68 9.5,5.68 17.33,11.93 23.47,18.75 6.2,6.83 14.53,18.96 25,36.36l26.62 43.65 -52.69 0 -31.6 -48.86c-11.34,-17.35 -19.11,-28.29 -23.32,-32.82 -4.17,-4.48 -8.59,-7.61 -13.26,-9.27 -4.73,-1.67 -12.14,-2.5 -22.31,-2.5l-8.94 0 0 93.45 -44.2 0zm44.2 -129.08l32.62 0c21.14,0 34.3,-0.94 39.58,-2.76 5.23,-1.82 9.4,-5 12.35,-9.48 2.99,-4.48 4.47,-10.1 4.47,-16.83 0,-7.55 -1.98,-13.6 -5.89,-18.28 -3.91,-4.63 -9.45,-7.55 -16.57,-8.75 -3.61,-0.52 -14.33,-0.78 -32.16,-0.78l-34.4 0 0 56.88z"/>
  <path id="_11" class="fil2" d="M2329.73 966.16c0,-22.82 3.35,-41.98 10.01,-57.5 4.93,-11.41 11.74,-21.67 20.32,-30.73 8.59,-9.06 17.99,-15.78 28.2,-20.21 13.62,-5.88 29.32,-8.86 47.1,-8.86 32.22,0 57.93,10.26 77.28,30.74 19.31,20.52 28.96,49.02 28.96,85.53 0,36.2 -9.61,64.54 -28.76,84.96 -19.15,20.47 -44.81,30.68 -76.88,30.68 -32.46,0 -58.33,-10.16 -77.48,-30.53 -19.16,-20.31 -28.76,-48.34 -28.76,-84.07zm45.42 -1.51c0,25.37 5.74,44.59 17.18,57.71 11.43,13.08 25.96,19.64 43.54,19.64 17.63,0 32.06,-6.51 43.39,-19.48 11.28,-13.02 16.92,-32.5 16.92,-58.5 0,-25.68 -5.49,-44.85 -16.51,-57.45 -10.98,-12.66 -25.56,-18.96 -43.8,-18.96 -18.19,0 -32.87,6.41 -44,19.17 -11.13,12.81 -16.72,32.09 -16.72,57.87z"/>
  <polygon id="_12" class="fil2" points="2576.62,1076.7 2576.62,852.92 2620.83,852.92 2620.83,952.05 2709.89,852.92 2769.14,852.92 2686.77,940.07 2773.41,1076.7 2716.4,1076.7 2656.34,971.64 2620.83,1009.03 2620.83,1076.7 "/>
  <polygon id="_13" class="fil2" points="2796.17,1076.7 2796.17,852.92 2957.74,852.92 2957.74,890.74 2840.37,890.74 2840.37,940.43 2949.51,940.43 2949.51,978.25 2840.37,978.25 2840.37,1038.88 2962.01,1038.88 2962.01,1076.7 "/>
  <path id="_14" class="fil2" d="M2999.51 1076.7l0 -223.77 92.83 0c23.32,0 40.29,2.03 50.86,6.04 10.62,4.01 19.05,11.15 25.41,21.41 6.35,10.32 9.55,22.03 9.55,35.27 0,16.82 -4.77,30.68 -14.38,41.62 -9.6,10.94 -23.93,17.81 -43.04,20.68 9.5,5.68 17.33,11.93 23.48,18.75 6.2,6.83 14.53,18.96 25,36.36l26.62 43.65 -52.69 0 -31.6 -48.86c-11.34,-17.35 -19.11,-28.29 -23.32,-32.82 -4.17,-4.48 -8.59,-7.61 -13.26,-9.27 -4.73,-1.67 -12.14,-2.5 -22.31,-2.5l-8.94 0 0 93.45 -44.2 0zm44.2 -129.08l32.62 0c21.14,0 34.3,-0.94 39.58,-2.76 5.23,-1.82 9.4,-5 12.35,-9.48 3,-4.48 4.47,-10.1 4.47,-16.83 0,-7.55 -1.98,-13.6 -5.89,-18.28 -3.91,-4.63 -9.45,-7.55 -16.57,-8.75 -3.61,-0.52 -14.33,-0.78 -32.16,-0.78l-34.4 0 0 56.88z"/>
  <path id="_15" class="fil2" d="M3208.09 1004.19l42.98 -4.37c2.59,14.74 7.78,25.52 15.65,32.45 7.88,6.93 18.5,10.37 31.86,10.37 14.13,0 24.79,-3.07 31.96,-9.22 7.17,-6.15 10.77,-13.34 10.77,-21.57 0,-5.31 -1.52,-9.79 -4.52,-13.54 -2.99,-3.7 -8.28,-6.93 -15.8,-9.64 -5.13,-1.87 -16.82,-5.1 -35.11,-9.79 -23.52,-6.04 -40.03,-13.44 -49.53,-22.24 -13.37,-12.35 -20.02,-27.4 -20.02,-45.16 0,-11.41 3.15,-22.14 9.4,-32.08 6.3,-9.95 15.34,-17.5 27.18,-22.71 11.84,-5.21 26.07,-7.81 42.83,-7.81 27.28,0 47.86,6.2 61.63,18.65 13.82,12.45 21.04,29.01 21.75,49.8l-44.2 1.56c-1.88,-11.56 -5.9,-19.84 -12.04,-24.9 -6.15,-5.05 -15.4,-7.6 -27.69,-7.6 -12.7,0 -22.66,2.71 -29.83,8.12 -4.62,3.49 -6.96,8.12 -6.96,13.96 0,5.31 2.19,9.85 6.56,13.6 5.54,4.84 19,9.85 40.39,15.05 21.39,5.16 37.2,10.57 47.4,16.09 10.27,5.57 18.3,13.13 24.09,22.76 5.79,9.64 8.69,21.51 8.69,35.63 0,12.81 -3.46,24.84 -10.42,36.05 -6.96,11.2 -16.77,19.53 -29.47,24.95 -12.7,5.47 -28.55,8.18 -47.51,8.18 -27.59,0 -48.78,-6.51 -63.56,-19.58 -14.79,-13.03 -23.57,-32.04 -26.47,-56.99z"/>
  <polygon id="_16" class="fil2" points="3508.93,1076.7 3508.93,854.8 3553.14,854.8 3553.14,1038.88 3662.58,1038.88 3662.58,1076.7 "/>
  <polygon id="_17" class="fil2" points="3692.41,1076.7 3692.41,852.92 3736.61,852.92 3736.61,1076.7 "/>
  <polygon id="_18" class="fil2" points="3778.02,1076.7 3778.02,852.92 3844.23,852.92 3883.35,1005.54 3922.02,852.92 3988.37,852.92 3988.37,1076.7 3947.52,1076.7 3947.37,900.53 3904.34,1076.7 3861.86,1076.7 3819.03,900.53 3818.87,1076.7 "/>
  <polygon id="_19" class="fil2" points="4031.05,1076.7 4031.05,852.92 4075.26,852.92 4075.26,1076.7 "/>
  <polygon id="_20" class="fil2" points="4166.36,1076.7 4166.36,890.74 4101.73,890.74 4101.73,852.92 4274.89,852.92 4274.89,890.74 4210.57,890.74 4210.57,1076.7 "/>
  <polygon id="_21" class="fil2" points="4303.5,1076.7 4303.5,852.92 4465.07,852.92 4465.07,890.74 4347.7,890.74 4347.7,940.43 4456.84,940.43 4456.84,978.25 4347.7,978.25 4347.7,1038.88 4469.34,1038.88 4469.34,1076.7 "/>
  <path id="_22" class="fil2" d="M4506.84 852.92l80.38 0c18.14,0 31.96,1.41 41.47,4.27 12.75,3.86 23.73,10.73 32.82,20.63 9.14,9.85 16.06,21.93 20.83,36.25 4.72,14.27 7.11,31.93 7.11,52.87 0,18.44 -2.24,34.27 -6.71,47.61 -5.44,16.3 -13.21,29.48 -23.32,39.54 -7.62,7.66 -17.94,13.6 -30.89,17.87 -9.71,3.18 -22.66,4.74 -38.92,4.74l-82.77 0 0 -223.77zm44.2 37.82l0 148.14 32.77 0c12.25,0 21.09,-0.73 26.52,-2.13 7.17,-1.82 13.06,-4.95 17.73,-9.32 4.72,-4.38 8.54,-11.57 11.48,-21.57 3,-10 4.47,-23.7 4.47,-40.99 0,-17.29 -1.47,-30.52 -4.47,-39.79 -2.95,-9.28 -7.11,-16.46 -12.45,-21.67 -5.34,-5.16 -12.1,-8.7 -20.33,-10.52 -6.1,-1.41 -18.14,-2.13 -36.02,-2.13l-19.71 0z"/>
 </g>
</svg>
