<?xml version="1.0" encoding="UTF-8"?>
<!DOCTYPE svg PUBLIC "-//W3C//DTD SVG 1.1//EN" "http://www.w3.org/Graphics/SVG/1.1/DTD/svg11.dtd">
<!-- Creator: CorelDRAW -->
<svg xmlns="http://www.w3.org/2000/svg" xml:space="preserve" width="4.69786in" height="1.08259in" version="1.1" style="shape-rendering:geometricPrecision; text-rendering:geometricPrecision; image-rendering:optimizeQuality; fill-rule:evenodd; clip-rule:evenodd"
viewBox="0 0 1026.18 236.48"
 xmlns:xlink="http://www.w3.org/1999/xlink"
 xmlns:xodm="http://www.corel.com/coreldraw/odm/2003">
 <defs>
  <style type="text/css">
   <![CDATA[
    .fil0 {fill:red}
    .fil1 {fill:black}
    .fil3 {fill:#666666;fill-rule:nonzero}
    .fil2 {fill:black;fill-rule:nonzero}
   ]]>
  </style>
 </defs>
 <g id="Layer_x0020_1">
  <metadata id="CorelCorpID_0Corel-Layer"/>
  <path class="fil0" d="M16.75 91.45l1.03 12.8c2.17,10.45 5.68,13.35 8.19,18.03 2.54,4.75 5.79,6.38 9.53,10.13 12.06,12.08 40.72,15.96 56.74,8.32l20.62 -11.42c1.46,-0.98 4.09,-4.35 5.07,-5.86 1.66,-2.56 2.59,-3.94 4.57,-6.35 8.53,-10.37 7.2,-11.98 11.53,-20.51 3.61,-7.11 2.49,-9.51 3.84,-18.04 1.64,-10.41 -6.01,-25.43 -11.05,-31.64 -10.09,-12.43 -20.38,-17.34 -36.2,-14.85 -4.9,0.77 -8.87,0.93 -12.52,3.5 -1.46,1.02 -2.04,1.3 -3.51,2.32 -8.63,5.99 -15.32,16.63 -14.19,27.35 1.02,9.76 6.65,14.26 15.58,17.23 5.82,1.94 14.44,0.04 19.41,2.43 -1.16,1.58 -3.26,3.06 -5.54,3.93 -6.92,2.63 -12.96,6.27 -24.31,6.27 -5.81,0 -18.2,-4.9 -18.2,-16.75 0,-13.74 4.42,-22.36 12.16,-31.52 2.87,-3.4 0.85,-2.21 6.21,-7.62 1.4,-1.41 1.91,-2.09 3.49,-3.06l4.04 -2.51c7.42,-5.36 9.25,-6.9 17.02,-11.38 1.27,-0.73 3.36,-1.74 4.69,-2.59 3.39,-2.18 0.92,-1.11 2.62,-4.66 -6.03,0 -27.78,5.12 -32.26,7.06 -2.72,1.18 -3.7,2 -6.11,3.36 -1.19,0.67 -2.18,1.21 -3.29,1.81 -1.38,0.74 -2.17,0.98 -3.45,1.65 -10.61,5.57 -17.41,16.05 -23.97,24.81 -5.94,7.94 -11.75,26.68 -11.75,37.76z"/>
  <path class="fil1" d="M2.18 7.72c-0.85,1.76 -1.46,3.19 -1.46,5.82l0 65.53c0,2.96 1.15,3.92 2.91,5.1 5.69,-3.81 5.85,-14.18 10.66,-23.56l4.28 -8.1c0.68,-1.24 1.04,-1.54 1.75,-2.62 15.08,-23.27 19.94,-24.74 40.78,-36.4 1.43,-0.8 3.56,-2.54 5.14,-3.59 -3.71,-5.54 -10.78,-3.37 -16.86,-3.02 -2.94,0.17 -2.93,-0.61 -6.45,-0.68 -6.32,-0.13 -3.12,1.66 -13.3,0.25 -3.66,-0.51 -24.48,0.56 -27.47,1.26z"/>
  <path class="fil0" d="M96.84 149.7c6.04,2.9 40.6,1.46 49.51,1.46 5.8,0 4.37,-9.37 4.37,-13.11 -0,-5.8 -0.12,-11.73 -0.02,-17.51l0.04 -24.74c0.04,-4.92 0.26,-4.71 -1.48,-7.99 -4.26,0.35 -3.6,1.33 -6.55,7.28 -2.23,4.5 -13.3,23.55 -16.57,26.39l-7.1 6.73c-1.24,1.21 -0.61,0.38 -1.77,1.87l-11.09 10.76c-1.1,0.62 -1.11,0.53 -2.36,1.28 -3.21,1.94 -5.97,3.79 -6.98,7.58z"/>
  <path class="fil0" d="M149.99 49.22l0.95 -23.41c0.32,-21.84 0.18,-18.82 -19.88,-18.82 -8.38,0 -9.01,3.05 -10.24,10.2 -0.53,3.06 -0.95,5.42 1.34,7.42 5.83,5.08 15.12,3.84 22.49,19.02 1.92,3.95 0.41,5.48 5.34,5.59z"/>
  <path class="fil0" d="M-0 140.23c0,12.95 9.04,10.19 24.03,10.19 2.51,0 2.82,-0.54 5.1,-0.73 0,-3.85 0.01,-1.09 0.73,-2.18 -0.82,-3.08 -3.43,-4.72 -6.05,-6.33 -2.13,-1.31 -5.97,-3.91 -7.63,-5.47 -5.74,-5.43 -5.66,-9.32 -12.53,-12.95 -1.98,2.95 -2.63,2.23 -2.91,7.28 -0.21,3.95 -0.73,5.99 -0.73,10.19z"/>
  <path class="fil2" d="M227.44 135.59l2.65 16.52c-5.45,1.1 -10.34,1.67 -14.61,1.67 -7.03,0 -12.47,-1.06 -16.37,-3.23 -3.86,-2.16 -6.59,-4.96 -8.17,-8.47 -1.58,-3.51 -2.35,-10.88 -2.35,-22.12l0 -63.59 -14.35 0 0 -14.46 14.35 0 0 -27.3 19.43 -11.24 0 38.53 19.43 0 0 14.46 -19.43 0 0 64.66c0,5.35 0.33,8.79 1.03,10.32 0.66,1.52 1.77,2.73 3.31,3.65 1.55,0.89 3.75,1.35 6.62,1.35 2.13,0 4.97,-0.25 8.46,-0.74z"/>
  <path id="_1" class="fil2" d="M246.39 152.29l0 -110.39 17.44 0 0 16.91c4.45,-7.83 8.57,-13.01 12.36,-15.49 3.79,-2.52 7.95,-3.76 12.47,-3.76 6.55,0 13.21,1.99 19.98,5.92l-6.92 17.26c-4.71,-2.55 -9.42,-3.83 -14.13,-3.83 -4.23,0 -8.02,1.24 -11.37,3.69 -3.35,2.45 -5.74,5.85 -7.17,10.21 -2.17,6.63 -3.24,13.9 -3.24,21.8l0 57.67 -19.43 0z"/>
  <path id="_2" class="fil2" d="M394.96 152.29l0 -16.41c-8.9,12.51 -20.97,18.75 -36.24,18.75 -6.73,0 -13.02,-1.24 -18.87,-3.72 -5.85,-2.52 -10.19,-5.64 -13.03,-9.39 -2.83,-3.79 -4.82,-8.4 -5.96,-13.86 -0.77,-3.69 -1.18,-9.5 -1.18,-17.44l0 -68.31 19.43 0 0 61.08c0,9.75 0.41,16.34 1.18,19.71 1.21,4.93 3.79,8.76 7.76,11.56 3.94,2.8 8.79,4.22 14.61,4.22 5.81,0 11.26,-1.42 16.34,-4.29 5.08,-2.87 8.68,-6.81 10.82,-11.73 2.1,-4.93 3.16,-12.12 3.16,-21.52l0 -59.02 19.43 0 0 110.39 -17.44 0z"/>
  <path id="_3" class="fil2" d="M521.05 116.55l20.09 2.55c-3.13,11.24 -8.98,19.99 -17.51,26.2 -8.54,6.2 -19.43,9.32 -32.71,9.32 -16.71,0 -29.95,-4.96 -39.74,-14.89 -9.79,-9.89 -14.68,-23.82 -14.68,-41.72 0,-18.5 4.93,-32.9 14.83,-43.11 9.9,-10.25 22.74,-15.35 38.52,-15.35 15.27,0 27.74,5 37.42,15.03 9.68,10.03 14.53,24.14 14.53,42.33 0,1.1 -0.04,2.76 -0.11,4.96l-85.33 0c0.74,12.09 4.27,21.37 10.67,27.79 6.37,6.42 14.35,9.64 23.88,9.64 7.1,0 13.17,-1.81 18.18,-5.42 5.04,-3.62 9.01,-9.39 11.96,-17.33zm-63.58 -29.99l63.8 0c-0.85,-9.29 -3.31,-16.24 -7.32,-20.88 -6.14,-7.2 -14.16,-10.81 -23.99,-10.81 -8.9,0 -16.37,2.87 -22.44,8.61 -6.03,5.74 -9.38,13.43 -10.04,23.08z"/>
  <path id="_4" class="fil2" d="M583.57 152.29l-18.1 0 0 -152.29 19.43 0 0 54.34c8.21,-9.85 18.65,-14.78 31.39,-14.78 7.03,0 13.72,1.35 20.02,4.08 6.29,2.73 11.44,6.59 15.53,11.52 4.05,4.96 7.25,10.92 9.53,17.9 2.32,6.95 3.46,14.43 3.46,22.37 0,18.86 -4.86,33.46 -14.53,43.74 -9.71,10.32 -21.34,15.45 -34.92,15.45 -13.5,0 -24.1,-5.42 -31.79,-16.23l0 13.9zm-0.22 -56.01c0,13.19 1.88,22.72 5.59,28.61 6.11,9.61 14.35,14.43 24.76,14.43 8.5,0 15.82,-3.54 21.97,-10.63 6.18,-7.09 9.27,-17.65 9.27,-31.69 0,-14.39 -2.94,-24.99 -8.87,-31.83 -5.92,-6.84 -13.1,-10.28 -21.49,-10.28 -8.5,0 -15.82,3.54 -21.97,10.63 -6.18,7.09 -9.27,17.33 -9.27,30.77z"/>
  <path id="_5" class="fil2" d="M811.25 152.29l0 -110.39 17.44 0 0 15.67c8.39,-12.02 20.53,-18.01 36.39,-18.01 6.92,0 13.25,1.21 19.02,3.58 5.78,2.37 10.12,5.53 12.99,9.39 2.87,3.86 4.89,8.47 6.03,13.79 0.7,3.47 1.07,9.54 1.07,18.19l0 67.78 -19.43 0 0 -67.07c0,-7.62 -0.74,-13.33 -2.25,-17.09 -1.51,-3.76 -4.19,-6.77 -8.02,-9.04 -3.83,-2.23 -8.35,-3.37 -13.5,-3.37 -8.24,0 -15.34,2.52 -21.34,7.59 -6,5.03 -8.98,14.64 -8.98,28.75l0 60.23 -19.43 0z"/>
  <path id="_6" class="fil2" d="M1007.99 152.29l0 -14c-7.25,10.88 -17.92,16.34 -32.01,16.34 -9.12,0 -17.51,-2.41 -25.13,-7.27 -7.65,-4.82 -13.58,-11.59 -17.81,-20.24 -4.19,-8.68 -6.29,-18.65 -6.29,-29.92 0,-10.99 1.91,-20.95 5.7,-29.92 3.83,-8.93 9.53,-15.81 17.15,-20.56 7.58,-4.79 16.12,-7.16 25.5,-7.16 6.92,0 13.06,1.42 18.43,4.22 5.37,2.8 9.75,6.49 13.14,10.99l0 -54.77 19.43 0 0 152.29 -18.1 0zm-61.37 -55.05c0,14.11 3.09,24.64 9.31,31.62 6.18,6.98 13.5,10.46 21.93,10.46 8.5,0 15.71,-3.33 21.67,-10 5.92,-6.66 8.9,-16.84 8.9,-30.52 0,-15.03 -3.02,-26.09 -9.09,-33.14 -6.03,-7.05 -13.5,-10.56 -22.37,-10.56 -8.65,0 -15.86,3.37 -21.67,10.14 -5.78,6.77 -8.68,17.44 -8.68,32.01z"/>
  <path id="_7" class="fil3" d="M681.18 97.09c0,-20.38 5.89,-35.48 17.7,-45.3 9.82,-8.15 21.86,-12.23 36.02,-12.23 15.71,0 28.59,4.96 38.6,14.89 9.97,9.89 14.97,23.61 14.97,41.08 0,14.18 -2.21,25.31 -6.62,33.43 -4.42,8.12 -10.85,14.43 -19.32,18.93 -8.43,4.5 -17.66,6.73 -27.63,6.73 -16.04,0 -28.99,-4.93 -38.89,-14.82 -9.9,-9.89 -14.83,-24.14 -14.83,-42.72zm19.87 0.04c0,14.11 3.2,24.67 9.6,31.66 6.44,7.02 14.5,10.53 24.25,10.53 9.64,0 17.66,-3.51 24.1,-10.56 6.4,-7.05 9.6,-17.79 9.6,-32.22 0,-13.61 -3.24,-23.93 -9.68,-30.91 -6.44,-7.02 -14.46,-10.53 -24.03,-10.53 -9.75,0 -17.81,3.47 -24.25,10.46 -6.4,6.98 -9.6,17.51 -9.6,31.58z"/>
  <path class="fil2" d="M24.5 218.01l0 -8.1 20.65 0 0 19.12c-2,1.97 -4.91,3.7 -8.73,5.21 -3.81,1.49 -7.67,2.24 -11.59,2.24 -4.97,0 -9.3,-1.05 -12.99,-3.16 -3.68,-2.11 -6.46,-5.13 -8.32,-9.05 -1.86,-3.91 -2.79,-8.19 -2.79,-12.79 0,-5 1.04,-9.44 3.11,-13.33 2.08,-3.88 5.11,-6.87 9.11,-8.94 3.05,-1.6 6.84,-2.39 11.38,-2.39 5.9,0 10.51,1.25 13.83,3.75 3.31,2.51 5.44,5.96 6.4,10.37l-9.56 1.81c-0.66,-2.35 -1.92,-4.22 -3.77,-5.59 -1.84,-1.36 -4.14,-2.04 -6.9,-2.04 -4.18,0 -7.51,1.34 -9.98,4.03 -2.47,2.69 -3.71,6.67 -3.71,11.95 0,5.7 1.25,9.97 3.75,12.82 2.51,2.84 5.79,4.27 9.85,4.27 2,0 4.02,-0.4 6.03,-1.19 2.03,-0.79 3.75,-1.76 5.2,-2.9l0 -6.08 -10.96 0z"/>
  <polygon id="_1_4772" class="fil2" points="54.3,235.61 54.3,188.09 63.93,188.09 63.93,227.51 87.76,227.51 87.76,235.61 "/>
  <path id="_2_4773" class="fil2" d="M92.6 211.94c0,-4.88 0.73,-8.99 2.18,-12.31 1.07,-2.44 2.56,-4.64 4.43,-6.58 1.87,-1.94 3.92,-3.38 6.14,-4.33 2.97,-1.26 6.39,-1.9 10.26,-1.9 7.02,0 12.62,2.2 16.83,6.58 4.21,4.39 6.31,10.5 6.31,18.31 0,7.75 -2.09,13.82 -6.26,18.19 -4.17,4.38 -9.76,6.57 -16.74,6.57 -7.07,0 -12.7,-2.17 -16.88,-6.54 -4.17,-4.35 -6.26,-10.35 -6.26,-18zm9.89 -0.32c0,5.43 1.25,9.55 3.74,12.36 2.49,2.8 5.66,4.2 9.48,4.2 3.84,0 6.98,-1.39 9.45,-4.17 2.46,-2.79 3.69,-6.96 3.69,-12.53 0,-5.5 -1.2,-9.6 -3.6,-12.3 -2.39,-2.71 -5.57,-4.06 -9.54,-4.06 -3.96,0 -7.16,1.37 -9.58,4.1 -2.42,2.74 -3.64,6.87 -3.64,12.39z"/>
  <path id="_3_4774" class="fil2" d="M146.24 187.69l19.01 0c3.77,0 6.57,0.16 8.42,0.47 1.86,0.32 3.51,0.98 4.97,1.97 1.46,1 2.68,2.33 3.65,3.99 0.97,1.66 1.46,3.54 1.46,5.6 0,2.23 -0.6,4.29 -1.79,6.16 -1.2,1.87 -2.82,3.27 -4.87,4.2 2.89,0.86 5.1,2.31 6.66,4.36 1.55,2.05 2.32,4.46 2.32,7.24 0,2.19 -0.5,4.31 -1.5,6.37 -1.01,2.06 -2.38,3.71 -4.13,4.95 -1.74,1.23 -3.88,1.99 -6.44,2.28 -1.59,0.17 -5.46,0.28 -11.58,0.32l-16.19 0 0 -47.91zm9.63 7.96l0 11.04 6.28 0c3.73,0 6.05,-0.06 6.96,-0.17 1.64,-0.19 2.93,-0.76 3.87,-1.71 0.94,-0.95 1.41,-2.19 1.41,-3.73 0,-1.48 -0.41,-2.68 -1.22,-3.6 -0.81,-0.93 -2.01,-1.48 -3.61,-1.67 -0.95,-0.11 -3.69,-0.17 -8.19,-0.17l-5.51 0zm0 19.01l0 12.85 8.9 0c3.45,0 5.66,-0.1 6.58,-0.29 1.43,-0.27 2.59,-0.9 3.49,-1.92 0.9,-1.03 1.35,-2.38 1.35,-4.08 0,-1.45 -0.34,-2.67 -1.04,-3.67 -0.69,-1 -1.69,-1.74 -3,-2.2 -1.31,-0.46 -4.15,-0.69 -8.52,-0.69l-7.76 0z"/>
  <path id="_4_4775" class="fil2" d="M237.01 235.61l-10.37 0 -4.11 -10.91 -19.07 0 -3.95 10.91 -10.18 0 18.46 -47.91 10.17 0 19.04 47.91zm-17.59 -19.01l-6.61 -17.73 -6.42 17.73 13.03 0z"/>
  <polygon id="_5_4776" class="fil2" points="242.4,235.61 242.4,188.09 252.03,188.09 252.03,227.51 275.87,227.51 275.87,235.61 "/>
  <polygon id="_6_4777" class="fil2" points="299.62,235.61 299.62,187.69 309.24,187.69 309.24,235.61 "/>
  <polygon id="_7_4778" class="fil2" points="318.4,235.61 318.4,187.69 327.71,187.69 347.28,219.8 347.28,187.69 356.18,187.69 356.18,235.61 346.56,235.61 327.29,204.11 327.29,235.61 "/>
  <polygon id="_8" class="fil2" points="378.51,235.61 361.5,187.69 371.9,187.69 383.97,223.16 395.56,187.69 405.79,187.69 388.88,235.61 "/>
  <polygon id="_9" class="fil2" points="410.63,235.61 410.63,187.69 445.82,187.69 445.82,195.79 420.26,195.79 420.26,206.43 444.03,206.43 444.03,214.53 420.26,214.53 420.26,227.51 446.75,227.51 446.75,235.61 "/>
  <path id="_10" class="fil2" d="M452.4 220.08l9.36 -0.94c0.56,3.16 1.69,5.47 3.41,6.95 1.71,1.48 4.03,2.22 6.94,2.22 3.08,0 5.4,-0.66 6.96,-1.97 1.56,-1.32 2.35,-2.86 2.35,-4.62 0,-1.14 -0.33,-2.1 -0.98,-2.9 -0.65,-0.79 -1.8,-1.48 -3.44,-2.06 -1.12,-0.4 -3.66,-1.09 -7.65,-2.1 -5.12,-1.29 -8.72,-2.88 -10.79,-4.76 -2.91,-2.64 -4.36,-5.87 -4.36,-9.67 0,-2.44 0.69,-4.74 2.05,-6.87 1.37,-2.13 3.34,-3.75 5.92,-4.86 2.58,-1.12 5.68,-1.67 9.33,-1.67 5.94,0 10.42,1.33 13.42,3.99 3.01,2.67 4.58,6.21 4.74,10.66l-9.63 0.33c-0.41,-2.48 -1.28,-4.25 -2.62,-5.33 -1.34,-1.08 -3.35,-1.63 -6.03,-1.63 -2.77,0 -4.94,0.58 -6.5,1.74 -1.01,0.75 -1.52,1.74 -1.52,2.99 0,1.14 0.48,2.11 1.43,2.91 1.21,1.04 4.14,2.11 8.8,3.22 4.66,1.1 8.1,2.26 10.32,3.45 2.24,1.19 3.98,2.81 5.25,4.87 1.26,2.06 1.89,4.61 1.89,7.63 0,2.74 -0.75,5.32 -2.27,7.72 -1.52,2.4 -3.65,4.18 -6.42,5.34 -2.77,1.17 -6.22,1.75 -10.35,1.75 -6.01,0 -10.62,-1.39 -13.84,-4.19 -3.22,-2.79 -5.13,-6.86 -5.77,-12.2z"/>
  <polygon id="_11" class="fil2" points="509.9,235.61 509.9,195.79 495.82,195.79 495.82,187.69 533.53,187.69 533.53,195.79 519.52,195.79 519.52,235.61 "/>
  <polygon id="_12" class="fil2" points="539.63,235.61 539.63,187.69 554.05,187.69 562.57,220.37 570.99,187.69 585.45,187.69 585.45,235.61 576.55,235.61 576.52,197.89 567.14,235.61 557.89,235.61 548.56,197.89 548.53,235.61 "/>
  <polygon id="_13" class="fil2" points="595.08,235.61 595.08,187.69 630.26,187.69 630.26,195.79 604.7,195.79 604.7,206.43 628.47,206.43 628.47,214.53 604.7,214.53 604.7,227.51 631.19,227.51 631.19,235.61 "/>
  <polygon id="_14" class="fil2" points="639.36,235.61 639.36,187.69 648.68,187.69 668.24,219.8 668.24,187.69 677.14,187.69 677.14,235.61 667.53,235.61 648.26,204.11 648.26,235.61 "/>
  <polygon id="_15" class="fil2" points="698,235.61 698,195.79 683.93,195.79 683.93,187.69 721.64,187.69 721.64,195.79 707.63,195.79 707.63,235.61 "/>
  <path id="_16" class="fil2" d="M725.35 220.08l9.36 -0.94c0.56,3.16 1.69,5.47 3.41,6.95 1.72,1.48 4.03,2.22 6.94,2.22 3.08,0 5.4,-0.66 6.96,-1.97 1.56,-1.32 2.35,-2.86 2.35,-4.62 0,-1.14 -0.33,-2.1 -0.98,-2.9 -0.65,-0.79 -1.8,-1.48 -3.44,-2.06 -1.12,-0.4 -3.66,-1.09 -7.65,-2.1 -5.12,-1.29 -8.72,-2.88 -10.79,-4.76 -2.91,-2.64 -4.36,-5.87 -4.36,-9.67 0,-2.44 0.69,-4.74 2.05,-6.87 1.37,-2.13 3.34,-3.75 5.92,-4.86 2.58,-1.12 5.68,-1.67 9.33,-1.67 5.94,0 10.42,1.33 13.42,3.99 3.01,2.67 4.58,6.21 4.74,10.66l-9.63 0.33c-0.41,-2.48 -1.28,-4.25 -2.62,-5.33 -1.34,-1.08 -3.35,-1.63 -6.03,-1.63 -2.77,0 -4.94,0.58 -6.5,1.74 -1.01,0.75 -1.52,1.74 -1.52,2.99 0,1.14 0.48,2.11 1.43,2.91 1.21,1.04 4.14,2.11 8.8,3.22 4.66,1.1 8.1,2.26 10.32,3.45 2.24,1.19 3.98,2.81 5.25,4.87 1.26,2.06 1.89,4.61 1.89,7.63 0,2.74 -0.75,5.32 -2.27,7.72 -1.52,2.4 -3.65,4.18 -6.42,5.34 -2.77,1.17 -6.22,1.75 -10.35,1.75 -6.01,0 -10.62,-1.39 -13.84,-4.19 -3.22,-2.79 -5.13,-6.86 -5.77,-12.2z"/>
  <path id="_17" class="fil2" d="M812.71 218.01l0 -8.1 20.65 0 0 19.12c-2,1.97 -4.91,3.7 -8.73,5.21 -3.81,1.49 -7.67,2.24 -11.59,2.24 -4.97,0 -9.3,-1.05 -12.99,-3.16 -3.68,-2.11 -6.46,-5.13 -8.32,-9.05 -1.86,-3.91 -2.79,-8.19 -2.79,-12.79 0,-5 1.04,-9.44 3.11,-13.33 2.08,-3.88 5.11,-6.87 9.11,-8.94 3.05,-1.6 6.84,-2.39 11.38,-2.39 5.9,0 10.51,1.25 13.83,3.75 3.31,2.51 5.44,5.96 6.4,10.37l-9.56 1.81c-0.66,-2.35 -1.92,-4.22 -3.77,-5.59 -1.84,-1.36 -4.14,-2.04 -6.9,-2.04 -4.18,0 -7.51,1.34 -9.98,4.03 -2.47,2.69 -3.71,6.67 -3.71,11.95 0,5.7 1.25,9.97 3.75,12.82 2.51,2.84 5.79,4.27 9.85,4.27 2,0 4.02,-0.4 6.03,-1.19 2.03,-0.79 3.75,-1.76 5.2,-2.9l0 -6.08 -10.96 0z"/>
  <path id="_18" class="fil2" d="M842.25 235.61l0 -47.91 20.22 0c5.08,0 8.78,0.44 11.08,1.29 2.31,0.86 4.15,2.39 5.53,4.58 1.38,2.21 2.08,4.72 2.08,7.55 0,3.6 -1.04,6.57 -3.13,8.91 -2.09,2.34 -5.21,3.81 -9.37,4.43 2.07,1.22 3.77,2.55 5.11,4.02 1.35,1.46 3.16,4.06 5.44,7.79l5.8 9.35 -11.48 0 -6.88 -10.46c-2.47,-3.71 -4.16,-6.06 -5.08,-7.03 -0.91,-0.96 -1.87,-1.63 -2.89,-1.98 -1.03,-0.36 -2.65,-0.54 -4.86,-0.54l-1.95 0 0 20.01 -9.63 0zm9.63 -27.64l7.1 0c4.6,0 7.47,-0.2 8.62,-0.59 1.14,-0.39 2.05,-1.07 2.69,-2.03 0.65,-0.96 0.97,-2.16 0.97,-3.6 0,-1.62 -0.43,-2.91 -1.28,-3.91 -0.85,-0.99 -2.06,-1.62 -3.61,-1.87 -0.79,-0.11 -3.12,-0.17 -7,-0.17l-7.49 0 0 12.18z"/>
  <path id="_19" class="fil2" d="M888.21 211.94c0,-4.88 0.73,-8.99 2.18,-12.31 1.07,-2.44 2.56,-4.64 4.43,-6.58 1.87,-1.94 3.92,-3.38 6.14,-4.33 2.97,-1.26 6.38,-1.9 10.26,-1.9 7.02,0 12.62,2.2 16.83,6.58 4.2,4.39 6.31,10.5 6.31,18.31 0,7.75 -2.09,13.82 -6.26,18.19 -4.17,4.38 -9.76,6.57 -16.74,6.57 -7.07,0 -12.7,-2.17 -16.88,-6.54 -4.17,-4.35 -6.26,-10.35 -6.26,-18zm9.89 -0.32c0,5.43 1.25,9.55 3.74,12.36 2.49,2.8 5.66,4.2 9.48,4.2 3.84,0 6.98,-1.39 9.45,-4.17 2.46,-2.79 3.69,-6.96 3.69,-12.53 0,-5.5 -1.2,-9.6 -3.6,-12.3 -2.39,-2.71 -5.57,-4.06 -9.54,-4.06 -3.96,0 -7.16,1.37 -9.58,4.1 -2.42,2.74 -3.64,6.87 -3.64,12.39z"/>
  <path id="_20" class="fil2" d="M941.85 187.69l9.63 0 0 25.96c0,4.13 0.12,6.79 0.35,8.01 0.41,1.96 1.37,3.55 2.9,4.73 1.54,1.19 3.63,1.78 6.29,1.78 2.69,0 4.72,-0.56 6.1,-1.68 1.37,-1.13 2.19,-2.5 2.47,-4.14 0.28,-1.64 0.42,-4.35 0.42,-8.14l0 -26.52 9.63 0 0 25.19c0,5.76 -0.25,9.83 -0.77,12.2 -0.52,2.38 -1.47,4.38 -2.87,6.02 -1.38,1.64 -3.24,2.93 -5.57,3.9 -2.33,0.97 -5.37,1.46 -9.12,1.46 -4.53,0 -7.96,-0.52 -10.29,-1.58 -2.33,-1.06 -4.18,-2.43 -5.54,-4.13 -1.36,-1.7 -2.25,-3.46 -2.68,-5.32 -0.63,-2.74 -0.94,-6.8 -0.94,-12.17l0 -25.59z"/>
  <path id="_21" class="fil2" d="M989.8 235.61l0 -47.91 15.39 0c5.83,0 9.63,0.23 11.4,0.71 2.72,0.72 5,2.29 6.84,4.7 1.84,2.41 2.76,5.52 2.76,9.34 0,2.94 -0.53,5.41 -1.58,7.42 -1.06,2.01 -2.4,3.58 -4.03,4.73 -1.63,1.14 -3.29,1.9 -4.97,2.26 -2.29,0.46 -5.6,0.69 -9.94,0.69l-6.24 0 0 18.07 -9.63 0zm9.63 -39.82l0 13.65 5.23 0c3.77,0 6.29,-0.26 7.56,-0.76 1.27,-0.5 2.27,-1.28 2.99,-2.36 0.72,-1.07 1.08,-2.31 1.08,-3.74 0,-1.75 -0.51,-3.19 -1.52,-4.33 -1.02,-1.14 -2.29,-1.85 -3.85,-2.14 -1.14,-0.21 -3.43,-0.32 -6.88,-0.32l-4.61 0z"/>
 </g>
</svg>
